<?xml version="1.0" standalone="no"?>
<!DOCTYPE svg PUBLIC "-//W3C//DTD SVG 20010904//EN"
 "http://www.w3.org/TR/2001/REC-SVG-20010904/DTD/svg10.dtd">
<svg version="1.0" xmlns="http://www.w3.org/2000/svg"
 width="900.000000pt" height="900.000000pt" viewBox="0 0 900.000000 900.000000"
 preserveAspectRatio="xMidYMid meet">

<g transform="translate(0.000000,900.000000) scale(0.100000,-0.100000)"
fill="#000000" stroke="none">
<path d="M4406 8989 c-64 -15 -155 -70 -201 -121 -60 -67 -93 -138 -105 -228
-6 -49 -9 -887 -7 -2423 1 -1291 0 -2347 -3 -2347 -3 0 -309 304 -680 676
-371 371 -693 688 -716 704 -111 78 -276 92 -404 33 -212 -98 -299 -356 -190
-562 44 -83 2152 -2188 2222 -2220 120 -54 266 -50 378 10 45 24 269 244 1126
1102 1174 1175 1106 1100 1122 1240 17 147 -20 262 -117 357 -74 72 -143 101
-257 108 -95 5 -174 -14 -244 -58 -25 -16 -351 -335 -725 -710 -374 -374 -683
-680 -687 -680 -4 0 -9 1088 -10 2418 l-3 2417 -29 59 c-36 71 -115 155 -176
186 -91 47 -200 61 -294 39z"/>
<path d="M310 3265 c-112 -32 -209 -115 -263 -225 l-32 -65 -3 -920 c-3 -1004
-3 -1016 55 -1200 112 -358 431 -676 788 -788 196 -61 -57 -57 3655 -57 3665
0 3453 -3 3635 51 351 104 685 432 795 779 55 175 53 143 57 1140 3 606 0 940
-6 972 -17 79 -52 140 -116 204 -68 68 -124 99 -210 115 -194 36 -379 -71
-459 -265 -21 -50 -21 -66 -26 -966 l-5 -915 -31 -66 c-38 -79 -115 -158 -193
-196 l-56 -28 -3385 0 -3385 0 -55 26 c-81 38 -163 118 -202 197 l-33 67 -5
915 -5 915 -23 58 c-80 197 -295 307 -492 252z"/>
</g>
</svg>
