<?xml version="1.0" standalone="no"?>
<!DOCTYPE svg PUBLIC "-//W3C//DTD SVG 20010904//EN"
 "http://www.w3.org/TR/2001/REC-SVG-20010904/DTD/svg10.dtd">
<svg version="1.0" xmlns="http://www.w3.org/2000/svg"
 width="900.000000pt" height="900.000000pt" viewBox="0 0 900.000000 900.000000"
 preserveAspectRatio="xMidYMid meet">

<g transform="translate(0.000000,900.000000) scale(0.100000,-0.100000)"
fill="#000000" stroke="none">
<path d="M6876 8430 c-177 -22 -324 -68 -486 -151 -146 -75 -230 -137 -355
-263 -294 -294 -440 -694 -403 -1101 6 -66 12 -131 12 -144 1 -21 -16 -31
-159 -96 -167 -75 -690 -311 -1565 -705 -688 -311 -799 -360 -809 -360 -5 0
-40 37 -79 83 -208 245 -505 415 -826 474 -137 25 -371 22 -506 -6 -293 -62
-510 -180 -721 -390 -211 -211 -329 -429 -390 -721 -29 -138 -31 -371 -6 -510
117 -633 640 -1108 1276 -1159 115 -9 277 -1 381 20 167 33 352 112 509 216
91 61 257 214 318 294 20 27 41 49 46 49 13 0 2536 -1121 2541 -1129 2 -3 -3
-40 -10 -81 -18 -103 -18 -344 1 -450 53 -300 189 -559 404 -770 207 -202 468
-336 750 -385 122 -21 346 -21 466 0 282 49 542 183 745 384 121 119 201 228
273 368 107 211 151 395 150 638 0 236 -40 409 -144 618 -68 136 -137 234
-251 353 -430 447 -1092 559 -1642 276 -167 -86 -325 -213 -434 -348 -40 -50
-73 -82 -82 -80 -8 2 -562 246 -1230 543 -668 297 -1237 550 -1263 561 -41 18
-47 25 -43 44 32 143 37 357 12 498 -8 47 -12 88 -8 91 4 4 511 234 1127 512
616 278 1183 533 1259 568 l139 63 19 -25 c133 -168 225 -255 379 -356 309
-202 680 -272 1044 -198 365 75 700 308 907 631 85 133 160 326 194 499 24
123 24 368 1 490 -57 296 -183 533 -396 746 -213 212 -443 336 -726 390 -115
23 -318 32 -419 19z m334 -575 c300 -63 554 -303 636 -600 25 -92 30 -294 9
-396 -79 -391 -420 -668 -823 -669 -468 -1 -842 372 -842 839 0 394 259 728
637 820 98 25 282 27 383 6z m-5043 -2255 c209 -50 382 -171 502 -350 104
-155 148 -323 138 -518 -11 -214 -92 -398 -242 -547 -149 -149 -334 -231 -547
-242 -237 -13 -445 60 -621 217 -114 101 -210 266 -248 425 -18 76 -20 111
-16 225 5 150 20 217 72 327 115 244 339 422 596 472 86 17 278 12 366 -9z
m5108 -2260 c274 -88 478 -291 565 -565 32 -99 39 -299 16 -415 -69 -341 -345
-605 -689 -660 -102 -17 -270 -8 -365 20 -279 79 -503 303 -582 582 -28 95
-37 263 -20 365 36 223 170 436 356 564 67 46 182 97 271 119 111 28 346 23
448 -10z"/>
</g>
</svg>
